<svg id="Layer_1" data-name="Layer 1" xmlns="http://www.w3.org/2000/svg" viewBox="0 0 472.05 114.68"><defs><style>.cls-1{fill:#1a0550;}.cls-2{fill:#5c1ab7;}</style></defs><path class="cls-1" d="M179.67,73.25l-.27.14a22.06,22.06,0,0,1-3,1.33,25.89,25.89,0,0,1-8.66,1.48,22.31,22.31,0,0,1-8.51-1.58,20.53,20.53,0,0,1-6.7-4.38,19.14,19.14,0,0,1-4.39-6.67,23.74,23.74,0,0,1,0-16.77,19.22,19.22,0,0,1,4.39-6.62,19.88,19.88,0,0,1,6.75-4.34,22.8,22.8,0,0,1,24.22,4.59,1.48,1.48,0,0,0,2,0L192,34.34a1.5,1.5,0,0,0,0-2.16,29.89,29.89,0,0,0-9.83-6.54,41.76,41.76,0,0,0-28.85-.41A32.77,32.77,0,0,0,142.43,32a30.78,30.78,0,0,0-7.2,10.29,32.53,32.53,0,0,0-2.55,13,32.6,32.6,0,0,0,2.55,13,31.2,31.2,0,0,0,17.94,17,38.81,38.81,0,0,0,13.73,2.37,47.09,47.09,0,0,0,13.49-2,38,38,0,0,0,11.11-5.36,1.51,1.51,0,0,0,.62-1.22V56.24a1.49,1.49,0,0,0-1.49-1.48h-9.47a1.48,1.48,0,0,0-1.49,1.48Z"/><path class="cls-1" d="M242.66,52.41a20.71,20.71,0,0,0-8.14-7.78A24.15,24.15,0,0,0,223,41.88,24.71,24.71,0,0,0,211,44.75a20.9,20.9,0,0,0-8.27,8,22.73,22.73,0,0,0-2.95,11.59,21.26,21.26,0,0,0,11.74,19.52A30.78,30.78,0,0,0,235,84.93a19.9,19.9,0,0,0,6.52-4.16,1.49,1.49,0,0,0,.07-2.09l-4.79-5.2a1.49,1.49,0,0,0-2-.14A14.25,14.25,0,0,1,231,75.57a15.94,15.94,0,0,1-6,1.06,15,15,0,0,1-6.8-1.42,10.62,10.62,0,0,1-4.46-4.09,11.38,11.38,0,0,1-.6-1.15,1.5,1.5,0,0,1,1.38-2.09h29.54a1.48,1.48,0,0,0,1.48-1.35l0-.39c.06-.62.08-1.18.08-1.66A23.21,23.21,0,0,0,242.66,52.41Zm-25.32.44a11.36,11.36,0,0,1,5.72-1.41,11.12,11.12,0,0,1,5.67,1.41,10.11,10.11,0,0,1,3.8,3.93,9.23,9.23,0,0,1,.75,1.8,1.5,1.5,0,0,1-1.43,1.93H214.19a1.5,1.5,0,0,1-1.43-1.94,10.1,10.1,0,0,1,.74-1.75A10,10,0,0,1,217.34,52.85Z"/><path class="cls-1" d="M294.7,50.26a15,15,0,0,0-6.44-6.32A20.39,20.39,0,0,0,279,41.88a20.71,20.71,0,0,0-10,2.35,17.49,17.49,0,0,0-2.08,1.32,1.48,1.48,0,0,1-2.37-1.19V44a1.49,1.49,0,0,0-1.49-1.49H254A1.49,1.49,0,0,0,252.5,44v40.6A1.49,1.49,0,0,0,254,86.1h9.66a1.48,1.48,0,0,0,1.48-1.48V64.56a14.13,14.13,0,0,1,1.34-6.64,9,9,0,0,1,3.73-3.81,11.15,11.15,0,0,1,5.38-1.3,8.42,8.42,0,0,1,6.52,2.51q2.31,2.52,2.31,7.78V84.62a1.49,1.49,0,0,0,1.49,1.48h9.66a1.49,1.49,0,0,0,1.49-1.48V61.16A22.48,22.48,0,0,0,294.7,50.26Z"/><path class="cls-1" d="M339,27.49v16.3a1.49,1.49,0,0,1-2.36,1.2,12.4,12.4,0,0,0-1-.68A18.68,18.68,0,0,0,326,41.88a22.16,22.16,0,0,0-11.1,2.79,20.3,20.3,0,0,0-7.78,7.82,23.67,23.67,0,0,0-2.83,11.83,23.66,23.66,0,0,0,2.83,11.82A20.23,20.23,0,0,0,314.9,84,22.16,22.16,0,0,0,326,86.75a19.13,19.13,0,0,0,9.84-2.39,12.94,12.94,0,0,0,1.39-.93,1.48,1.48,0,0,1,2.38,1.19h0a1.48,1.48,0,0,0,1.48,1.48h9.1a1.48,1.48,0,0,0,1.48-1.48V27.49A1.49,1.49,0,0,0,350.19,26h-9.66A1.49,1.49,0,0,0,339,27.49ZM337.78,70.8a10.34,10.34,0,0,1-4,4.17,11.36,11.36,0,0,1-5.67,1.42A11.25,11.25,0,0,1,322.51,75a10.41,10.41,0,0,1-4-4.17A13.37,13.37,0,0,1,317,64.32a13,13,0,0,1,1.49-6.48,10.39,10.39,0,0,1,4-4.09,11.15,11.15,0,0,1,5.59-1.42,11.26,11.26,0,0,1,5.67,1.42,10.32,10.32,0,0,1,4,4.09,13,13,0,0,1,1.5,6.48A13.37,13.37,0,0,1,337.78,70.8Z"/><path class="cls-1" d="M360.26,28.26a8.07,8.07,0,0,0,1.11,6,6.91,6.91,0,0,0,4.8,3,6.15,6.15,0,0,0,5.19-1.41,8.46,8.46,0,0,0,2.81-5.32,8.15,8.15,0,0,0-1.06-6,6.86,6.86,0,0,0-9.91-1.63A8.15,8.15,0,0,0,360.26,28.26Z"/><rect class="cls-1" x="360.9" y="42.53" width="12.64" height="43.58" rx="1.49"/><path class="cls-1" d="M415.43,42.53A1.48,1.48,0,0,0,414,44V64.15a14,14,0,0,1-1.34,6.48A9.1,9.1,0,0,1,409,74.52a10.19,10.19,0,0,1-5.18,1.3,8.34,8.34,0,0,1-6.52-2.55c-1.54-1.71-2.31-4.39-2.31-8.06V44a1.49,1.49,0,0,0-1.49-1.49h-9.66A1.48,1.48,0,0,0,382.36,44V67.15a23.21,23.21,0,0,0,2.34,11,15,15,0,0,0,6.57,6.48,21.46,21.46,0,0,0,9.72,2.1,18.9,18.9,0,0,0,9.23-2.31,14.37,14.37,0,0,0,1.9-1.23,1.48,1.48,0,0,1,2.39,1.17v.24A1.49,1.49,0,0,0,416,86.1h9a1.49,1.49,0,0,0,1.49-1.48V44A1.49,1.49,0,0,0,425,42.53Z"/><path class="cls-1" d="M451.48,86.75a42,42,0,0,1-10.69-1.33,30.64,30.64,0,0,1-7-2.65,1.49,1.49,0,0,1-.62-1.93l2.91-6.34a1.47,1.47,0,0,1,2-.71A33.57,33.57,0,0,0,443.91,76,29.16,29.16,0,0,0,452,77.19c2.91,0,5-.35,6.19-1A3.23,3.23,0,0,0,460,73.23a2.48,2.48,0,0,0-1.42-2.31,12.23,12.23,0,0,0-3.73-1.18c-1.54-.27-3.25-.54-5.14-.81a49.64,49.64,0,0,1-5.63-1.13,22.33,22.33,0,0,1-5.19-2.07,10.17,10.17,0,0,1-3.8-3.68A11.59,11.59,0,0,1,433.66,56a11.82,11.82,0,0,1,2.43-7.33,15.74,15.74,0,0,1,6.88-5,29,29,0,0,1,10.78-1.78,42.38,42.38,0,0,1,9.11,1,29.06,29.06,0,0,1,7.21,2.51.64.64,0,0,1,.27.83l-3.37,7a1.47,1.47,0,0,1-2,.69,22.17,22.17,0,0,0-5-1.79,27.42,27.42,0,0,0-6.12-.73c-2.92,0-5,.37-6.32,1.13a3.35,3.35,0,0,0-1.94,2.92A2.69,2.69,0,0,0,447.11,58a11.6,11.6,0,0,0,3.8,1.25q2.35.4,5.19.81a48.14,48.14,0,0,1,5.59,1.14,21.84,21.84,0,0,1,5.14,2.06,10.22,10.22,0,0,1,3.81,3.69A11.65,11.65,0,0,1,472.05,73a11.23,11.23,0,0,1-2.43,7.09,16,16,0,0,1-7,4.9A30.76,30.76,0,0,1,451.48,86.75Z"/><path class="cls-2" d="M86.13,57.9c0-13.78-12.37-26.82-25.45-26.82A24.25,24.25,0,0,0,36.46,55.3v8.5a2,2,0,0,0,4,0V55.3A20.24,20.24,0,0,1,60.68,35.08c10.82,0,21.45,11.31,21.45,22.9,0,.3,1,30.17-15.26,44.76a2,2,0,0,0,2.67,3c7.34-6.59,12.53-17,15-30A86.74,86.74,0,0,0,86.13,57.9Z"/><path class="cls-2" d="M72.65,76.91a.29.29,0,0,1,0-.09,72.55,72.55,0,0,0,.85-19.52,12.87,12.87,0,0,0-25.73.13v8.36a9.84,9.84,0,1,1-19.68,0L28,64a1.05,1.05,0,0,1-.72-.52,1.09,1.09,0,0,1,.31-1.39,1.76,1.76,0,0,0,.51-.8A1.58,1.58,0,0,0,28,60.14a1,1,0,0,0-.69-.48.9.9,0,0,0-.6.09.83.83,0,0,0-.23.19c-.21.21-.2.71-.24,1.21s-.31,1.29-1,1.3a1.41,1.41,0,0,0-1.13.72v.9a.81.81,0,0,1,.69.42.84.84,0,0,1-.35,1.14.83.83,0,0,1-.34.1v.06a13.84,13.84,0,0,0,27.68,0V57.43a8.87,8.87,0,0,1,17.73,0v.26a68.37,68.37,0,0,1-.79,18.36A33.56,33.56,0,0,1,58.8,91.6C53,96.85,43.86,99.44,34.41,98.54c-9.24-.89-17.33-5.1-22.19-11.55C1.36,72.57,2.39,49.35,9,33.87,14.26,21.61,27.43,6.54,47.3,4.38,63.22,2.65,78.82,7.18,89,16.5a2,2,0,0,0,2.7-3C80.51,3.31,64.17-1.48,46.87.4,25.29,2.75,11,19.05,5.34,32.3A69.4,69.4,0,0,0,0,60.84C.32,72.09,3.43,82,9,89.4s14.64,12.12,25,13.12c1.37.13,2.72.19,4.07.19,9.07,0,17.6-2.92,23.38-8.14A36.71,36.71,0,0,0,72.63,77S72.64,76.93,72.65,76.91ZM26.38,63.49a.63.63,0,0,1,.09.43.59.59,0,0,1-.68.45.52.52,0,0,1-.3-.18.56.56,0,0,1,.52-.94A.57.57,0,0,1,26.38,63.49Zm-1.44,5.38a.75.75,0,1,1,1,.3A.74.74,0,0,1,24.94,68.87Zm1.68,2.52a.58.58,0,0,1-.46-.67.57.57,0,0,1,.67-.45.58.58,0,0,1,.46.67A.57.57,0,0,1,26.62,71.39Zm.56-4.22a1,1,0,1,1,.39-1.3A1,1,0,0,1,27.18,67.17Z"/><path class="cls-2" d="M63.85,18.74a6.22,6.22,0,0,1,.79.32,1,1,0,0,0,1.09-1.62,3.71,3.71,0,0,0-1.55-.75c-.8-.26-1.12-.72-1-1.22.21-1,1.39-.72.84-.84l-1.27-.29a.89.89,0,0,1-.57.36.83.83,0,0,1-.94-.67c-1-.2-2-.37-3-.5a.66.66,0,0,1,0,.15.74.74,0,1,1-1.47.22.73.73,0,0,1,.12-.52c-10.16-1.1-19.09,1.23-26.61,7-12.48,9.6-18.08,26.66-18,38.45.15,21.55,8.93,32,26.85,32,12.58,0,23.62-11.45,23.62-24.5V58.09a2,2,0,0,0-4,0v8.29c0,10.72-9.35,20.5-19.62,20.5-9.72,0-22.68-2.91-22.85-28.07-.07-9,4.25-25.89,16.43-35.25C40.46,17.65,49.9,15.81,60.86,18a1,1,0,0,1,2,.13.85.85,0,0,1,0,.32A4.34,4.34,0,0,1,63.85,18.74Zm-4.17-2.32a1,1,0,0,1-1.1-.81,1,1,0,0,1,.81-1.09,1,1,0,0,1,.29,1.9Z"/><path class="cls-2" d="M96.94,53a2,2,0,0,0-1.87,2.12c0,.27,1.45,25.25-7.1,41.83a1,1,0,0,1,.28.7,1,1,0,0,1-1,1.06.31.31,0,0,0-.31.15c-.09.14-.54.9-.88,1.42h0l-.06.12,0,.07a.78.78,0,0,0-.08.35,1,1,0,0,0,1,1,.94.94,0,0,0,.29-.06.9.9,0,0,0,.6-.6.54.54,0,0,0,.06-.13c.13-.34,0-.9.62-1s.64.78,1.22,1c.39.16.66,0,.9-.36h0v0l.09-.15.66-1.19a.84.84,0,0,1,.31-1.62.85.85,0,0,1,.44.14c.78-1.61,1.48-3.28,2.11-5A1.13,1.13,0,0,1,94,92.2a1.16,1.16,0,0,1,.76-1.08c5.49-16.42,4.41-35.29,4.35-36.28A2,2,0,0,0,96.94,53Zm-7,44.3a1,1,0,1,1,1-1A1,1,0,0,1,90,97.27Zm1.68-5.15a.57.57,0,1,1,.08.8A.57.57,0,0,1,91.63,92.12Zm.27,3.23a.75.75,0,0,1,0-1.49.75.75,0,1,1,0,1.49Zm2.31-5a.33.33,0,1,1-.51-.42.32.32,0,0,1,.46,0A.33.33,0,0,1,94.21,90.32Z"/><path class="cls-2" d="M48.79,111.73a1.48,1.48,0,1,0,1.48,1.47A1.47,1.47,0,0,0,48.79,111.73Z"/><path class="cls-2" d="M58.18,108.2a1.91,1.91,0,1,0,2.43,1.2A1.91,1.91,0,0,0,58.18,108.2Z"/><path class="cls-2" d="M100,23.48a1.91,1.91,0,1,0-1.19,2.42A1.91,1.91,0,0,0,100,23.48Z"/><circle class="cls-2" cx="84.14" cy="106.81" r="0.78"/><circle class="cls-2" cx="81.06" cy="108.36" r="0.65"/><path class="cls-2" d="M88.1,102h0a.88.88,0,0,0-.33.07.89.89,0,0,0-.57.84.86.86,0,0,0,.09.39l.08.12a.88.88,0,0,0,1.61-.36.41.41,0,0,1,0-.09v-.1A.9.9,0,0,0,88.1,102Z"/><path class="cls-2" d="M85.5,103.25a.88.88,0,0,0-.33.07,1,1,0,0,0-.65.91,1,1,0,0,0,2,0,1,1,0,0,0-.13-.47A1,1,0,0,0,85.5,103.25Z"/><path class="cls-2" d="M26.46,55.51a.78.78,0,1,0-1.05-.32A.78.78,0,0,0,26.46,55.51Z"/><path class="cls-2" d="M27.78,51.43a.65.65,0,1,0,.61,1.14.65.65,0,0,0-.61-1.14Z"/><path class="cls-2" d="M25,59.87a.92.92,0,0,0-.84,0A.9.9,0,0,0,23.71,61a.57.57,0,0,0,0,.14.87.87,0,0,0,.29.31.89.89,0,0,0,.94.06h0a.89.89,0,0,0,.47-.85.74.74,0,0,0-.1-.37A.87.87,0,0,0,25,59.87Z"/><path class="cls-2" d="M25.59,58.55a1,1,0,0,0,1,.06,1.12,1.12,0,0,0,.26-.22A1,1,0,0,0,27,57.28a1,1,0,0,0-1.73.93A.92.92,0,0,0,25.59,58.55Z"/><path class="cls-2" d="M70.64,20.09a.77.77,0,1,0,.65-.89A.78.78,0,0,0,70.64,20.09Z"/><path class="cls-2" d="M72.76,22.88a.66.66,0,0,0,.74.55.65.65,0,0,0,.54-.74.65.65,0,0,0-1.28.19Z"/><path class="cls-2" d="M66.9,15.37h-.15a.73.73,0,0,0-.26.09.89.89,0,0,0-.5.94h0a1.1,1.1,0,0,0,.11.32,1,1,0,0,0,.92.44.86.86,0,0,0,.48-.25.87.87,0,0,0,.28-.78A.89.89,0,0,0,66.9,15.37Z"/><path class="cls-2" d="M67.8,19.48A1,1,0,1,0,68.51,18a1,1,0,0,0-.44.2,1,1,0,0,0-.39.92A1.12,1.12,0,0,0,67.8,19.48Z"/></svg>